<svg width="100%" height="100%" style="overflow:visible;" preserveAspectRatio="none" viewBox="0 0 263 157" fill="none" xmlns="http://www.w3.org/2000/svg">
<path d="M0 146.639V145.401H7.43853V146.275C7.42284 147.973 7.90002 149.243 8.86993 150.085C9.85538 150.926 11.2164 151.346 12.9528 151.346C14.6737 151.346 15.9878 150.958 16.895 150.182C17.818 149.405 18.2795 148.362 18.2795 147.051C18.2795 145.822 17.8023 144.843 16.8481 144.115C15.9094 143.371 13.9776 142.562 11.0521 141.689C7.50101 140.621 4.84953 139.23 3.09742 137.515C1.36096 135.784 0.484938 133.503 0.469292 130.672C0.469292 127.55 1.58 125.067 3.80132 123.223C6.02269 121.379 9.00279 120.457 12.7416 120.457C16.4492 120.457 19.4293 121.355 21.682 123.15C23.9502 124.946 25.0844 127.413 25.0844 130.551V131.594H17.7866V130.915C17.7866 129.475 17.3643 128.335 16.5196 127.494C15.6748 126.636 14.439 126.208 12.812 126.208C11.1538 126.208 9.93369 126.555 9.15149 127.251C8.38498 127.947 8.00165 128.877 8.00165 130.041C8.00165 131.158 8.47883 132.039 9.43304 132.686C10.3873 133.317 12.3584 134.078 15.3463 134.967C18.8035 135.986 21.4082 137.378 23.1603 139.141C24.9124 140.888 25.7884 143.306 25.7884 146.396C25.7884 149.728 24.6151 152.333 22.2685 154.21C19.9378 156.07 16.8559 157 13.0232 157C9.20619 157 6.07753 156.126 3.63708 154.379C1.21237 152.617 0 150.035 0 146.639ZM35.4092 156.49L27.3606 121.063H34.893L39.8676 144.212C39.9615 144.633 40.0319 145.005 40.0788 145.329C40.1257 145.652 40.1726 146.056 40.2196 146.542H40.3839C40.4309 146.056 40.4778 145.652 40.5247 145.329C40.5872 145.005 40.6655 144.633 40.7594 144.212L46.1328 121.063H53.8295L59.3673 144.188C59.4769 144.609 59.5473 144.989 59.5785 145.329C59.6254 145.652 59.6803 146.056 59.7428 146.542H59.9071C59.9541 146.04 60.001 145.628 60.0479 145.304C60.1104 144.981 60.173 144.609 60.2356 144.188L65.0225 121.063H71.8509L63.8962 156.49H55.8007L50.1455 133.342C50.0516 132.937 49.9655 132.541 49.8874 132.152C49.8248 131.748 49.7701 131.303 49.7231 130.818H49.5589C49.512 131.303 49.4493 131.748 49.371 132.152C49.3086 132.541 49.2303 132.937 49.1364 133.342L43.4814 156.49H35.4092ZM75.0658 156.393V121.063H82.8328V156.393H75.0658ZM85.8833 127.251V121.063H112.868V127.251H103.271V156.393H95.504V127.251H85.8833ZM114.417 139.772V137.685C114.417 131.829 115.77 127.494 118.477 124.679C121.183 121.864 124.718 120.457 129.083 120.457C133.244 120.457 136.514 121.541 138.893 123.708C141.27 125.86 142.459 128.836 142.459 132.638V133.973H134.926V132.225C134.926 130.317 134.442 128.852 133.472 127.833C132.518 126.798 131.062 126.28 129.107 126.28C127.073 126.28 125.454 127.057 124.249 128.61C123.06 130.147 122.466 132.654 122.466 136.132V141.349C122.466 144.665 123.06 147.14 124.249 148.774C125.454 150.408 127.104 151.225 129.201 151.225C131.078 151.225 132.485 150.683 133.424 149.6C134.364 148.515 134.864 146.963 134.926 144.94V143.557H142.459V145.11C142.365 148.685 141.153 151.564 138.822 153.748C136.507 155.917 133.253 157 129.06 157C124.617 157 121.066 155.576 118.406 152.729C115.747 149.866 114.417 145.547 114.417 139.772ZM146.518 156.393V121.063H154.214V134.967H165.925V121.063H173.597V156.393H165.925V141.349H154.214V156.393H146.518ZM179.417 156.393V121.063H187.114V135.04L198.095 121.063H206.215L187.114 144.552V156.393H179.417ZM198.659 156.393L187.793 139.359L192.557 133.511L207.669 156.393H198.659ZM209.5 156.393V121.063H232.026V127.251H217.008V135.453H229.938V141.228H217.008V150.328H232.331V156.393H209.5ZM244.111 156.393V143.315L232.8 121.063H241.249L247.325 133.414C247.528 133.835 247.709 134.231 247.865 134.603C248.022 134.975 248.17 135.364 248.311 135.768H248.429C248.569 135.364 248.717 134.975 248.874 134.603C249.031 134.231 249.21 133.835 249.414 133.414L255.514 121.063H263L251.855 143.096V156.393H244.111Z" fill="black"/>
<path fill-rule="evenodd" clip-rule="evenodd" d="M103.167 97.41L103.169 97.3936C103.179 97.3947 103.188 97.3958 103.197 97.3969L103.167 97.41ZM145.284 81.9483L147.874 89.1887C148.925 92.2606 150.09 94.6199 151.389 96.2119L151.397 96.2217C152.852 97.9409 155.149 98.7164 158.103 98.7164C160.015 98.7164 161.937 98.2961 163.868 97.4682L163.882 97.4621C165.838 96.5741 167.375 95.3241 168.455 93.6991L168.809 93.1655L168.34 92.7371C167.6 92.0618 166.903 91.3418 166.248 90.5771C165.652 89.782 165.044 88.7746 164.429 87.5464C163.855 86.3121 163.211 84.7267 162.496 82.7844L155.103 62.5155C153.732 58.6395 152.146 55.3543 150.341 52.6726C148.508 49.9024 146.129 47.8055 143.213 46.3933C142.093 45.8325 140.843 45.3832 139.468 45.0416C139.482 45.0305 139.495 45.0194 139.509 45.008C139.654 44.886 139.852 44.6977 140.019 44.4418C141.519 42.8267 142.843 40.963 143.992 38.8552C143.994 38.8537 143.994 38.8524 143.995 38.8511L164.545 2.87282L164.79 2.44485L164.496 2.05249L163.546 0.78965L163.358 0.541229L163.055 0.510915C161.638 0.369025 160.197 0.274521 158.736 0.227268C157.327 0.180279 156.008 0.156728 154.778 0.156728C152.271 0.156728 150.282 0.678852 148.963 1.87182C147.743 2.93235 146.584 4.5117 145.476 6.56492L128.05 36.997L128.043 37.0092C127.91 37.2513 127.779 37.4802 127.651 37.6961C124.069 37.3148 120.387 37.396 116.61 37.9346V1.30848V0.714238L116.047 0.593038C114.928 0.35189 113.703 0.208191 112.374 0.158723C111.727 0.0420319 111.025 0 110.289 0H107.39H106.823H106.702H106.674H106.667H106.665H106.641H106.617L106.593 0.00168931L106.569 0.00337166L106.566 0.00358105L106.564 0.00369118L106.558 0.00418337L106.556 0.00430063L106.531 0.00617071L106.528 0.00640982L106.433 0.013965L106.431 0.0141258C106.345 0.0211758 106.221 0.031943 106.061 0.047167C105.812 0.0708964 105.477 0.10547 105.069 0.153701L105.012 0.157537C103.629 0.205804 102.39 0.349684 101.302 0.594356L100.745 0.719479V0.828965C100.521 0.872095 100.293 0.91734 100.062 0.964788C96.3365 1.72715 91.518 3.07477 87.3506 5.42539C82.4231 8.20462 77.6767 11.3788 73.1659 17.0204C71.5328 19.063 70.1882 21.839 69.2312 24.6757C68.2719 27.5189 67.6648 30.5332 67.5739 33.103L67.5735 33.1164V33.1202C67.4118 38.1407 68.6586 42.8968 71.282 47.3589C74.3572 52.5895 78.4197 56.0759 83.4779 57.6733L83.4868 57.6761C88.4352 59.2018 93.9875 59.4865 100.113 58.5852L100.118 58.5845L100.124 58.5835L100.126 58.5832L100.748 58.4856L100.865 96.4667V97.1127V97.9283C100.81 98.0096 102.694 98.5849 102.984 98.6635L103.316 98.7448L103.648 98.826C105.734 99.3363 108.556 99.3218 110.862 99.2071C112.038 99.1486 113.124 99.0612 113.971 98.9892L114.363 98.9557C115.038 98.8978 115.427 98.8653 115.571 98.8653C115.871 98.8653 116.314 98.7793 116.702 98.6968C117.152 98.6014 117.728 98.4641 118.393 98.2934C119.725 97.9514 121.445 97.4666 123.278 96.8898C126.894 95.7521 131.126 94.2025 133.625 92.6316C138.887 89.323 142.504 85.7586 145.284 81.9483ZM163.802 87.8826C163.802 87.8825 163.802 87.8828 163.802 87.8826V87.8826ZM163.598 96.7929C163.598 96.7928 163.598 96.7931 163.598 96.7929V96.7929ZM134.857 70.5774L134.86 70.5781L134.198 70.3242C135.362 67.0809 135.103 64.1359 133.465 61.3496C132.047 58.9388 130.03 57.3055 127.348 56.4216C127.347 56.4215 127.348 56.4218 127.348 56.4216L127.334 56.4174C124.577 55.4806 121.224 55.2778 117.224 55.8954C117.223 55.8956 117.224 55.8954 117.224 55.8954L116.61 55.992V83.4872C120.045 82.5009 123.195 81.1032 126.065 79.2987C130.451 76.5408 133.073 73.5298 134.194 70.334L134.198 70.3242L134.857 70.5774ZM100.745 15.4046C97.2294 16.4733 94.2182 17.8073 91.6953 19.3933C87.7192 21.893 85.3269 24.763 84.2907 27.9493C83.2788 31.1523 83.5843 34.0333 85.1621 36.7173C86.4773 38.9541 88.247 40.2458 90.5198 40.7069C93.0094 41.2119 95.9285 41.2239 99.2992 40.699M99.3021 40.6986L100.745 40.4676V15.4046" fill="black"/>
<path fill-rule="evenodd" clip-rule="evenodd" d="M148.039 93.2513L154.596 81.1042L154.692 81.1031C155.048 80.4503 155.564 79.9057 156.188 79.5239C156.811 79.1421 157.521 78.9366 158.244 78.928C158.969 78.9194 159.683 79.1078 160.315 79.4745C160.947 79.8412 161.474 80.3733 161.844 81.0174L168.671 93.0041C169.042 93.6493 169.242 94.3834 169.251 95.1335C169.263 96.2666 168.841 97.3584 168.075 98.1689C167.309 98.9793 166.263 99.4419 165.167 99.4551L151.735 99.616C151.006 99.6331 150.285 99.4506 149.646 99.0866C149.009 98.7227 148.475 98.1905 148.099 97.544C147.723 96.8976 147.52 96.1599 147.509 95.4058C147.499 94.6519 147.682 93.9086 148.039 93.2513ZM165.726 93.7798L159.501 82.9786L159.545 82.9782C159.406 82.7366 159.21 82.537 158.974 82.3995C158.738 82.2618 158.47 82.1911 158.2 82.1944C157.929 82.1977 157.665 82.2747 157.432 82.4179C157.198 82.5612 157.006 82.7653 156.873 83.01L150.935 93.9569C150.808 94.2037 150.742 94.4787 150.739 94.7586C150.746 95.0385 150.819 95.3123 150.954 95.5554C151.092 95.7968 151.289 95.9963 151.525 96.1339C151.761 96.2713 152.028 96.342 152.298 96.3386L164.417 96.1935C164.688 96.1903 164.952 96.1133 165.186 95.9702C165.419 95.8271 165.611 95.6229 165.744 95.3782C165.874 95.133 165.94 94.8567 165.938 94.5767C165.935 94.2965 165.861 94.022 165.726 93.7798Z" fill="#FFBD04"/>
</svg>
