<svg width="100%" height="100%" style="overflow:visible;" preserveAspectRatio="none" viewBox="0 0 173.76 42" fill="none" xmlns="http://www.w3.org/2000/svg">
<mask id="path-1-inside-1_668_1282" fill="white">
<path d="M0.240723 4C0.240723 1.79086 2.03158 0 4.24072 0H169.999C172.209 0 173.999 1.79086 173.999 4V38C173.999 40.2091 172.209 42 169.999 42H4.24073C2.03159 42 0.240723 40.2091 0.240723 38V4Z"/>
</mask>
<path d="M0.240723 4C0.240723 1.79086 2.03158 0 4.24072 0H169.999C172.209 0 173.999 1.79086 173.999 4V38C173.999 40.2091 172.209 42 169.999 42H4.24073C2.03159 42 0.240723 40.2091 0.240723 38V4Z" fill="white" stroke="#AAAAAA" stroke-width="2" mask="url(#path-1-inside-1_668_1282)"/>
</svg>
