<svg width="100%" height="100%" style="overflow:visible;" preserveAspectRatio="none" viewBox="0 0 12.51 12.5" fill="none" xmlns="http://www.w3.org/2000/svg">
<path d="M12.5686 11.6806L10.2499 9.38064C11.1499 8.2584 11.5858 6.83395 11.4679 5.4002C11.35 3.96645 10.6872 2.63238 9.61583 1.67229C8.54449 0.712207 7.14601 0.199085 5.70796 0.238435C4.2699 0.277785 2.90158 0.866617 1.88434 1.88385C0.867105 2.90109 0.278274 4.26941 0.238923 5.70747C0.199573 7.14552 0.712695 8.544 1.67278 9.61534C2.63287 10.6867 3.96694 11.3495 5.40069 11.4674C6.83444 11.5853 8.25889 11.1495 9.38113 10.2494L11.6811 12.5494C11.7392 12.608 11.8084 12.6545 11.8845 12.6862C11.9607 12.7179 12.0424 12.7343 12.1249 12.7343C12.2074 12.7343 12.2891 12.7179 12.3652 12.6862C12.4414 12.6545 12.5105 12.608 12.5686 12.5494C12.6813 12.4328 12.7442 12.2771 12.7442 12.115C12.7442 11.9529 12.6813 11.7972 12.5686 11.6806ZM5.87488 10.2494C5.00959 10.2494 4.16372 9.9928 3.44426 9.51207C2.72479 9.03134 2.16404 8.34806 1.83291 7.54863C1.50177 6.7492 1.41513 5.86954 1.58394 5.02087C1.75275 4.1722 2.16943 3.39265 2.78129 2.7808C3.39314 2.16894 4.17269 1.75227 5.02136 1.58346C5.87003 1.41464 6.74969 1.50128 7.54912 1.83242C8.34855 2.16355 9.03183 2.72431 9.51256 3.44377C9.99329 4.16324 10.2499 5.0091 10.2499 5.87439C10.2499 7.03471 9.78894 8.14751 8.96847 8.96798C8.148 9.78846 7.0352 10.2494 5.87488 10.2494Z" fill="#7D7D7D"/>
</svg>
