<svg width="100%" height="100%" style="overflow:visible;" preserveAspectRatio="none" viewBox="0 0 19.99 20" fill="none" xmlns="http://www.w3.org/2000/svg">
<path d="M19.6599 8.24971L10.6599 0.249711C10.4774 0.0893918 10.2428 0.000976563 9.99988 0.000976562C9.75697 0.000976563 9.52236 0.0893918 9.33988 0.249711L0.339875 8.24971C0.186911 8.38502 0.0790427 8.56392 0.0307741 8.76236C-0.0174945 8.9608 -0.00384947 9.16926 0.0698747 9.35971C0.142393 9.54765 0.26998 9.7093 0.435924 9.8235C0.601869 9.9377 0.798434 9.99912 0.999875 9.99971H1.99987V18.9997C1.99987 19.2649 2.10523 19.5193 2.29277 19.7068C2.4803 19.8944 2.73466 19.9997 2.99987 19.9997H16.9999C17.2651 19.9997 17.5194 19.8944 17.707 19.7068C17.8945 19.5193 17.9999 19.2649 17.9999 18.9997V9.99971H18.9999C19.2013 9.99912 19.3979 9.9377 19.5638 9.8235C19.7298 9.7093 19.8574 9.54765 19.9299 9.35971C20.0036 9.16926 20.0172 8.9608 19.969 8.76236C19.9207 8.56392 19.8128 8.38502 19.6599 8.24971ZM10.9999 17.9997H8.99988V14.9997C8.99988 14.7345 9.10523 14.4801 9.29277 14.2926C9.4803 14.1051 9.73466 13.9997 9.99988 13.9997C10.2651 13.9997 10.5194 14.1051 10.707 14.2926C10.8945 14.4801 10.9999 14.7345 10.9999 14.9997V17.9997ZM15.9999 17.9997H12.9999V14.9997C12.9999 14.2041 12.6838 13.441 12.1212 12.8784C11.5586 12.3158 10.7955 11.9997 9.99988 11.9997C9.20423 11.9997 8.44116 12.3158 7.87855 12.8784C7.31594 13.441 6.99987 14.2041 6.99987 14.9997V17.9997H3.99987V9.99971H15.9999V17.9997ZM3.62987 7.99971L9.99988 2.33971L16.3699 7.99971H3.62987Z" fill="#9197B3"/>
</svg>
