<svg width="100%" height="100%" style="overflow:visible;" preserveAspectRatio="none" viewBox="0 0 16.67 16.67" fill="none" xmlns="http://www.w3.org/2000/svg">
<path d="M13.9998 8.01602C13.7788 8.01602 13.5669 8.10381 13.4106 8.26009C13.2543 8.41637 13.1665 8.62834 13.1665 8.84935V14.8327C13.1665 15.0537 13.0787 15.2657 12.9224 15.4219C12.7661 15.5782 12.5542 15.666 12.3332 15.666H3.1665C2.94549 15.666 2.73353 15.5782 2.57725 15.4219C2.42097 15.2657 2.33317 15.0537 2.33317 14.8327V5.66602C2.33317 5.445 2.42097 5.23304 2.57725 5.07676C2.73353 4.92048 2.94549 4.83268 3.1665 4.83268H9.14984C9.37085 4.83268 9.58281 4.74488 9.73909 4.5886C9.89537 4.43232 9.98317 4.22036 9.98317 3.99935C9.98317 3.77834 9.89537 3.56637 9.73909 3.41009C9.58281 3.25381 9.37085 3.16602 9.14984 3.16602H3.1665C2.50346 3.16602 1.86758 3.42941 1.39874 3.89825C0.929896 4.36709 0.666504 5.00297 0.666504 5.66602V14.8327C0.666504 15.4957 0.929896 16.1316 1.39874 16.6005C1.86758 17.0693 2.50346 17.3327 3.1665 17.3327H12.3332C12.9962 17.3327 13.6321 17.0693 14.1009 16.6005C14.5698 16.1316 14.8332 15.4957 14.8332 14.8327V8.84935C14.8332 8.62834 14.7454 8.41637 14.5891 8.26009C14.4328 8.10381 14.2209 8.01602 13.9998 8.01602ZM17.2665 1.18268C17.1819 0.979058 17.0201 0.817245 16.8165 0.732682C16.7163 0.689981 16.6087 0.667332 16.4998 0.666016H11.4998C11.2788 0.666016 11.0669 0.753813 10.9106 0.910093C10.7543 1.06637 10.6665 1.27834 10.6665 1.49935C10.6665 1.72036 10.7543 1.93232 10.9106 2.0886C11.0669 2.24489 11.2788 2.33268 11.4998 2.33268H14.4915L5.90817 10.9077C5.83006 10.9852 5.76807 11.0773 5.72576 11.1789C5.68345 11.2804 5.66167 11.3893 5.66167 11.4993C5.66167 11.6094 5.68345 11.7183 5.72576 11.8198C5.76807 11.9214 5.83006 12.0135 5.90817 12.091C5.98564 12.1691 6.07781 12.2311 6.17936 12.2734C6.28091 12.3157 6.38983 12.3375 6.49984 12.3375C6.60985 12.3375 6.71877 12.3157 6.82032 12.2734C6.92187 12.2311 7.01404 12.1691 7.0915 12.091L15.6665 3.50768V6.49935C15.6665 6.72036 15.7543 6.93232 15.9106 7.0886C16.0669 7.24489 16.2788 7.33268 16.4998 7.33268C16.7209 7.33268 16.9328 7.24489 17.0891 7.0886C17.2454 6.93232 17.3332 6.72036 17.3332 6.49935V1.49935C17.3319 1.39045 17.3092 1.28287 17.2665 1.18268V1.18268Z" fill="white"/>
</svg>
