<svg width="100%" height="100%" style="overflow:visible;" preserveAspectRatio="none" viewBox="0 0 19.21 20" fill="none" xmlns="http://www.w3.org/2000/svg">
<path d="M17.7802 -0.00010431H1.41117C1.22717 -0.00274893 1.04447 0.0321432 0.873494 0.102579C0.702523 0.173016 0.546634 0.277616 0.414729 0.410408C0.282825 0.543199 0.177489 0.70158 0.104737 0.876505C0.0319856 1.05143 -0.00675687 1.23947 -0.00927734 1.4299V18.5699C-0.00675687 18.7603 0.0319856 18.9484 0.104737 19.1233C0.177489 19.2982 0.282825 19.4566 0.414729 19.5894C0.546634 19.7222 0.702523 19.8268 0.873494 19.8972C1.04447 19.9676 1.22717 20.0025 1.41117 19.9999H17.7802C17.9642 20.0025 18.1469 19.9676 18.3178 19.8972C18.4888 19.8268 18.6447 19.7222 18.7766 19.5894C18.9085 19.4566 19.0138 19.2982 19.0866 19.1233C19.1593 18.9484 19.1981 18.7603 19.2006 18.5699V1.4299C19.1981 1.23947 19.1593 1.05143 19.0866 0.876505C19.0138 0.70158 18.9085 0.543199 18.7766 0.410408C18.6447 0.277616 18.4888 0.173016 18.3178 0.102579C18.1469 0.0321432 17.9642 -0.00274893 17.7802 -0.00010431ZM5.81746 16.7399H2.91859V7.7399H5.81746V16.7399ZM4.36803 6.4799C3.96823 6.4799 3.58482 6.31554 3.30212 6.02298C3.01943 5.73043 2.86061 5.33363 2.86061 4.9199C2.86061 4.50616 3.01943 4.10937 3.30212 3.81681C3.58482 3.52425 3.96823 3.3599 4.36803 3.3599C4.58032 3.33498 4.7953 3.35675 4.99889 3.42378C5.20249 3.49081 5.39011 3.60159 5.54947 3.74886C5.70883 3.89613 5.83633 4.07657 5.92363 4.27838C6.01093 4.48018 6.05606 4.69879 6.05606 4.9199C6.05606 5.141 6.01093 5.35961 5.92363 5.56141C5.83633 5.76322 5.70883 5.94366 5.54947 6.09093C5.39011 6.23821 5.20249 6.34898 4.99889 6.41601C4.7953 6.48304 4.58032 6.50481 4.36803 6.4799ZM16.2727 16.7399H13.3739V11.9099C13.3739 10.6999 12.9584 9.9099 11.9051 9.9099C11.5791 9.91237 11.2617 10.0182 10.9957 10.2131C10.7296 10.408 10.5276 10.6826 10.417 10.9999C10.3414 11.2349 10.3086 11.4825 10.3204 11.7299V16.7299H7.42151C7.42151 16.7299 7.42151 8.5499 7.42151 7.7299H10.3204V8.9999C10.5837 8.527 10.9667 8.13741 11.4282 7.8731C11.8896 7.60878 12.412 7.47975 12.939 7.4999C14.8716 7.4999 16.2727 8.7899 16.2727 11.5599V16.7399Z" fill="#0E76A8"/>
</svg>
