<svg width="100%" height="100%" style="overflow:visible;" preserveAspectRatio="none" viewBox="0 0 34.65 32.85" fill="none" xmlns="http://www.w3.org/2000/svg">
<path fill-rule="evenodd" clip-rule="evenodd" d="M12.3042 32.2356L12.305 32.2302C12.3082 32.2305 12.3113 32.2309 12.3145 32.2312L12.3042 32.2356ZM26.7169 27.1189L27.603 29.5149C27.9629 30.5315 28.3614 31.3123 28.8059 31.8391L28.8088 31.8423C29.3066 32.4113 30.0925 32.6679 31.1035 32.6679C31.7579 32.6679 32.4157 32.5288 33.0764 32.2548L33.0813 32.2528C33.7507 31.959 34.2764 31.5453 34.646 31.0076L34.7674 30.831L34.6068 30.6892C34.3534 30.4657 34.1149 30.2275 33.8909 29.9744C33.6868 29.7113 33.4788 29.3779 33.2684 28.9715C33.0721 28.563 32.8515 28.0383 32.6068 27.3956L30.0771 20.6881C29.6079 19.4054 29.0652 18.3182 28.4475 17.4308C27.8202 16.514 27.0061 15.8201 26.0083 15.3528C25.6247 15.1672 25.1971 15.0185 24.7265 14.9055C24.7313 14.9018 24.7357 14.8981 24.7405 14.8944C24.7904 14.854 24.8581 14.7917 24.9151 14.707C25.4283 14.1725 25.8816 13.5557 26.2748 12.8582C26.2753 12.8577 26.2753 12.8573 26.2758 12.8569L33.3081 0.950694L33.3918 0.809065L33.2912 0.679224L32.9661 0.261316L32.9018 0.179107L32.7983 0.169076C32.3132 0.12212 31.8203 0.0908463 31.3201 0.0752091C30.8379 0.0596591 30.3866 0.0518654 29.9658 0.0518654C29.1078 0.0518654 28.4272 0.22465 27.9759 0.619435C27.5585 0.970394 27.1619 1.49304 26.7827 2.17251L20.8191 12.2433L20.8169 12.2473C20.7714 12.3275 20.7267 12.4032 20.6826 12.4747C19.4569 12.3485 18.1971 12.3754 16.9043 12.5536V0.433013V0.23636L16.7118 0.196252C16.3288 0.11645 15.9095 0.0688961 15.4549 0.0525256C15.2334 0.0139095 14.9933 0 14.7414 0H13.7492H13.5554H13.5138H13.5042H13.5019H13.5014H13.4929H13.4847L13.4765 0.000559037L13.4683 0.00111577L13.4673 0.00118506L13.4668 0.00122151L13.4645 0.00138439L13.4639 0.00142319L13.4554 0.00204205L13.4544 0.00212118L13.4218 0.00462141L13.4211 0.00467462C13.3918 0.00700762 13.3492 0.0105708 13.2946 0.0156088C13.2095 0.0234615 13.0948 0.0349028 12.9549 0.0508637L12.9357 0.0521334C12.4622 0.0681062 12.0383 0.11572 11.6659 0.196688L11.4754 0.238095V0.274327C11.3989 0.2886 11.3209 0.303572 11.2415 0.319274C9.96677 0.57156 8.31783 1.01753 6.89172 1.79541C5.20553 2.71513 3.58126 3.76554 2.03767 5.6325C1.47881 6.30845 1.01868 7.22712 0.691177 8.16586C0.362898 9.10673 0.155154 10.1042 0.124053 10.9547L0.123907 10.9591V10.9604C0.0685731 12.6218 0.495234 14.1957 1.39296 15.6723C2.44532 17.4033 3.83554 18.557 5.56646 19.0857L5.56951 19.0866C7.2629 19.5914 9.16292 19.6857 11.259 19.3874L11.2607 19.3872L11.263 19.3868L11.2636 19.3868L11.4763 19.3544L11.5165 31.9234V32.1372V32.4071C11.4976 32.434 12.1423 32.6244 12.2415 32.6504L12.3552 32.6773L12.4689 32.7042C13.1825 32.873 14.1484 32.8683 14.9374 32.8303C15.34 32.8109 15.7115 32.782 16.0014 32.7582L16.1356 32.7471C16.3666 32.7279 16.4997 32.7172 16.549 32.7172C16.6515 32.7172 16.8031 32.6887 16.9358 32.6614C17.0898 32.6298 17.2871 32.5844 17.5147 32.5279C17.9705 32.4147 18.5591 32.2543 19.1862 32.0634C20.4237 31.6869 21.8718 31.1741 22.7269 30.6543C24.5277 29.5594 25.7655 28.3798 26.7169 27.1189ZM33.0537 29.0827C33.0537 29.0827 33.0537 29.0828 33.0537 29.0827V29.0827ZM32.984 32.0314C32.984 32.0313 32.984 32.0314 32.984 32.0314V32.0314ZM23.1487 23.3559L23.1497 23.3562L22.9233 23.2722C23.3214 22.1989 23.2329 21.2243 22.6723 20.3022C22.1871 19.5044 21.4969 18.9639 20.579 18.6714C20.5788 18.6714 20.5791 18.6715 20.579 18.6714L20.5744 18.67C19.631 18.36 18.4834 18.2929 17.1144 18.4973C17.1144 18.4973 17.1145 18.4973 17.1144 18.4973L16.9043 18.5293V27.6282C18.0799 27.3018 19.1577 26.8392 20.14 26.2421C21.6411 25.3294 22.5383 24.333 22.9219 23.2754L22.9233 23.2722L23.1487 23.3559ZM11.4754 5.09778C10.2723 5.45146 9.24186 5.89292 8.37853 6.41777C7.01786 7.24497 6.19922 8.19474 5.84463 9.24918C5.49836 10.3091 5.60288 11.2625 6.14282 12.1507C6.5929 12.891 7.19848 13.3184 7.97625 13.471C8.82821 13.6381 9.82712 13.6421 10.9806 13.4684M10.9816 13.4682L11.4754 13.3918V5.09778" fill="black"/>
</svg>
