<svg width="15" height="15" viewBox="0 0 15 15" fill="none" xmlns="http://www.w3.org/2000/svg">
<path d="M13.5686 12.6806L11.2499 10.3806C12.1499 9.2584 12.5858 7.83395 12.4679 6.4002C12.35 4.96645 11.6872 3.63238 10.6158 2.67229C9.54449 1.71221 8.14601 1.19908 6.70796 1.23843C5.2699 1.27779 3.90158 1.86662 2.88434 2.88385C1.86711 3.90109 1.27827 5.26941 1.23892 6.70747C1.19957 8.14552 1.7127 9.544 2.67278 10.6153C3.63287 11.6867 4.96694 12.3495 6.40069 12.4674C7.83444 12.5853 9.25889 12.1495 10.3811 11.2494L12.6811 13.5494C12.7392 13.608 12.8084 13.6545 12.8845 13.6862C12.9607 13.7179 13.0424 13.7343 13.1249 13.7343C13.2074 13.7343 13.2891 13.7179 13.3652 13.6862C13.4414 13.6545 13.5105 13.608 13.5686 13.5494C13.6813 13.4328 13.7442 13.2771 13.7442 13.115C13.7442 12.9529 13.6813 12.7972 13.5686 12.6806ZM6.87488 11.2494C6.00959 11.2494 5.16372 10.9928 4.44426 10.5121C3.72479 10.0313 3.16404 9.34806 2.83291 8.54863C2.50177 7.7492 2.41513 6.86954 2.58394 6.02087C2.75275 5.1722 3.16943 4.39265 3.78129 3.7808C4.39314 3.16894 5.17269 2.75227 6.02136 2.58346C6.87003 2.41464 7.74969 2.50128 8.54912 2.83242C9.34855 3.16355 10.0318 3.72431 10.5126 4.44377C10.9933 5.16324 11.2499 6.0091 11.2499 6.87439C11.2499 8.03471 10.7889 9.14751 9.96847 9.96798C9.148 10.7885 8.0352 11.2494 6.87488 11.2494Z" fill="#7D7D7D"/>
</svg>
