<svg width="100%" height="100%" style="overflow:visible;" preserveAspectRatio="none" viewBox="0 0 120 71.63" fill="none" xmlns="http://www.w3.org/2000/svg"><path d="M0 66.9075V66.343H3.39401V66.7414C3.38685 67.5164 3.60457 68.0959 4.04712 68.48C4.49675 68.8635 5.11774 69.0556 5.91002 69.0556C6.69521 69.0556 7.29479 68.8782 7.70876 68.5241C8.12989 68.1699 8.34046 67.6938 8.34046 67.0956C8.34046 66.5349 8.12274 66.0883 7.68735 65.7562C7.25906 65.4166 6.37759 65.0476 5.0428 64.649C3.42251 64.1619 2.21271 63.5271 1.41327 62.7447C0.620971 61.9549 0.221265 60.9142 0.214125 59.6225C0.214125 58.198 0.720914 57.065 1.73444 56.2236C2.74799 55.3821 4.10774 54.9614 5.81367 54.9614C7.50536 54.9614 8.8651 55.371 9.89291 56.1904C10.9279 57.0097 11.4454 58.1353 11.4454 59.5672V60.0433H8.11558V59.7333C8.11558 59.0763 7.92288 58.556 7.53747 58.1721C7.15201 57.781 6.58816 57.5854 5.84579 57.5854C5.08917 57.5854 4.53248 57.7441 4.17558 58.0614C3.82584 58.3788 3.65094 58.8032 3.65094 59.3347C3.65094 59.844 3.86867 60.2463 4.30405 60.5415C4.73943 60.8293 5.63884 61.1762 7.00213 61.5822C8.57953 62.0472 9.76799 62.682 10.5674 63.4865C11.3669 64.2836 11.7666 65.3871 11.7666 66.7968C11.7666 68.3173 11.2312 69.5057 10.1605 70.362C9.09708 71.211 7.6909 71.6351 5.94214 71.6351C4.20054 71.6351 2.77302 71.2363 1.6595 70.4394C0.553172 69.6351 0 68.4574 0 66.9075ZM16.1563 71.4024L12.4839 55.2382H15.9208L18.1905 65.8004C18.2334 65.9924 18.2655 66.1621 18.2869 66.3098C18.3083 66.4573 18.3297 66.6419 18.3511 66.8635H18.4261C18.4475 66.6419 18.469 66.4573 18.4904 66.3098C18.5189 66.1621 18.5546 65.9924 18.5974 65.8004L21.0492 55.2382H24.561L27.0878 65.7894C27.1377 65.9813 27.1699 66.1548 27.1841 66.3098C27.2055 66.4573 27.2305 66.6419 27.2591 66.8635H27.3341C27.3555 66.6345 27.3769 66.4463 27.3983 66.2987C27.4268 66.151 27.4554 65.9813 27.4839 65.7894L29.6681 55.2382H32.7837L29.1541 71.4024H25.4604L22.8801 60.8404C22.8372 60.6559 22.798 60.4751 22.7623 60.2979C22.7337 60.1133 22.7088 59.9104 22.6874 59.689H22.6124C22.591 59.9104 22.5624 60.1133 22.5267 60.2979C22.4982 60.4751 22.4625 60.6559 22.4197 60.8404L19.8394 71.4024H16.1563ZM34.2505 71.3584V55.2382H37.7944V71.3584H34.2505ZM39.1863 58.0614V55.2382H51.4989V58.0614H47.1199V71.3584H43.576V58.0614H39.1863ZM52.2056 63.7743V62.8222C52.2056 60.1503 52.8229 58.1721 54.0578 56.8879C55.2926 55.6036 56.9058 54.9614 58.8972 54.9614C60.7959 54.9614 62.2876 55.4559 63.373 56.445C64.4578 57.4267 65.0001 58.7848 65.0001 60.5193V61.1283H61.5634V60.3311C61.5634 59.4602 61.3422 58.7921 60.8998 58.3272C60.4644 57.8548 59.8002 57.6186 58.9079 57.6186C57.98 57.6186 57.2412 57.9729 56.6916 58.6814C56.1492 59.3826 55.8779 60.5267 55.8779 62.1136V64.494C55.8779 66.0071 56.1492 67.1362 56.6916 67.8818C57.2412 68.6274 57.9943 69.0002 58.9508 69.0002C59.8073 69.0002 60.4496 68.7528 60.8778 68.2586C61.3067 67.7638 61.535 67.0555 61.5634 66.1326V65.5015H65.0001V66.2101C64.9576 67.8411 64.4042 69.1549 63.3408 70.1513C62.2844 71.141 60.7998 71.6351 58.8865 71.6351C56.8593 71.6351 55.2391 70.9856 54.0256 69.6865C52.8122 68.38 52.2056 66.4094 52.2056 63.7743ZM66.8523 71.3584V55.2382H70.3639V61.5822H75.7071V55.2382H79.2077V71.3584H75.7071V64.494H70.3639V71.3584H66.8523ZM81.8634 71.3584V55.2382H85.375V61.6154L90.3854 55.2382H94.0904L85.375 65.9554V71.3584H81.8634ZM90.6427 71.3584L85.6852 63.5861L87.8586 60.9179L94.7541 71.3584H90.6427ZM95.5892 71.3584V55.2382H105.867V58.0614H99.015V61.8037H104.915V64.4386H99.015V68.5907H106.007V71.3584H95.5892ZM111.381 71.3584V65.3908L106.221 55.2382H110.075L112.848 60.8736C112.941 61.0655 113.023 61.2463 113.094 61.4161C113.166 61.5859 113.234 61.763 113.298 61.9476H113.352C113.415 61.763 113.483 61.5859 113.555 61.4161C113.626 61.2463 113.708 61.0655 113.801 60.8736L116.585 55.2382H120L114.915 65.2911V71.3584H111.381Z" fill="black"/><path fill-rule="evenodd" clip-rule="evenodd" d="M47.0724 44.4456L47.0735 44.4382C47.0777 44.4386 47.0819 44.4392 47.0862 44.4396L47.0724 44.4456ZM66.2893 37.3909L67.4708 40.6945C67.9507 42.0961 68.4821 43.1726 69.0747 43.899L69.0786 43.9034C69.7422 44.6878 70.7902 45.0417 72.1381 45.0417C73.0107 45.0417 73.8878 44.8499 74.7687 44.4722L74.7752 44.4694C75.6677 44.0642 76.3688 43.4939 76.8615 42.7524L77.0234 42.509L76.8092 42.3135C76.4713 42.0054 76.1534 41.6769 75.8548 41.328C75.5826 40.9652 75.3053 40.5055 75.0248 39.9451C74.7629 39.382 74.4688 38.6586 74.1425 37.7723L70.7696 28.5242C70.144 26.7556 69.4204 25.2567 68.5969 24.0331C67.7604 22.7691 66.675 21.8124 65.3445 21.1681C64.8331 20.9122 64.263 20.7072 63.6355 20.5513C63.642 20.5462 63.6478 20.5412 63.6542 20.536C63.7206 20.4803 63.8109 20.3944 63.887 20.2776C64.5713 19.5407 65.1756 18.6903 65.6999 17.7286C65.7005 17.7279 65.7005 17.7273 65.7012 17.7267L75.0776 1.31079L75.1892 1.11552L75.0551 0.936497L74.6217 0.360297L74.5359 0.246949L74.3979 0.233117C73.751 0.168376 73.0939 0.125257 72.427 0.103697C71.784 0.0822564 71.1823 0.0715107 70.6213 0.0715107C69.4772 0.0715107 68.5698 0.309742 67.9681 0.854062C67.4115 1.33796 66.8827 2.05857 66.3771 2.9954L58.4257 16.8808L58.4226 16.8863C58.3621 16.9968 58.3024 17.1012 58.2437 17.1997C56.6093 17.0258 54.9296 17.0628 53.2059 17.3086V0.597027V0.325888L52.9492 0.270588C52.4385 0.160558 51.8795 0.0949922 51.2734 0.072421C50.978 0.019178 50.6578 0 50.322 0H48.9991H48.7408H48.6852H48.6725H48.6694H48.6687H48.6574H48.6465L48.6355 0.000770787L48.6246 0.0015384L48.6233 0.00163394L48.6225 0.00168419L48.6194 0.00190876L48.6187 0.00196226L48.6073 0.00281553L48.606 0.00292463L48.5626 0.00637188L48.5617 0.00644525C48.5226 0.00966194 48.4658 0.0145748 48.393 0.021521C48.2794 0.0323482 48.1265 0.0481232 47.94 0.0701296L47.9144 0.0718802C47.283 0.0939031 46.7179 0.159552 46.2213 0.271189L45.9674 0.328279V0.378235C45.8653 0.397914 45.7613 0.418558 45.6555 0.440208C43.9559 0.788052 41.7573 1.40294 39.8558 2.47546C37.6075 3.74355 35.4418 5.19183 33.3837 7.76595C32.6386 8.69794 32.0251 9.96458 31.5884 11.2589C31.1507 12.5561 30.8737 13.9315 30.8322 15.104L30.832 15.1102V15.1119C30.7583 17.4026 31.3271 19.5727 32.5241 21.6086C33.9273 23.9952 35.7809 25.586 38.0888 26.3148L38.0928 26.3161C40.3507 27.0122 42.8841 27.1421 45.6789 26.7309L45.6811 26.7306L45.6841 26.7301L45.6849 26.73L45.9685 26.6854L46.0222 44.0152V44.31V44.6821C45.997 44.7192 46.8566 44.9817 46.9888 45.0176L47.1405 45.0546L47.2921 45.0917C48.2435 45.3245 49.5314 45.3179 50.5834 45.2656C51.1201 45.2389 51.6155 45.199 52.002 45.1661L52.181 45.1509C52.4889 45.1245 52.6664 45.1097 52.7322 45.1097C52.8688 45.1097 53.0709 45.0704 53.248 45.0328C53.4533 44.9892 53.7164 44.9266 54.0198 44.8487C54.6276 44.6927 55.4123 44.4714 56.2485 44.2083C57.8984 43.6892 59.8292 42.9821 60.9694 42.2653C63.3705 40.7558 65.0208 39.1294 66.2893 37.3909ZM74.7384 40.0985C74.7384 40.0985 74.7384 40.0986 74.7384 40.0985V40.0985ZM74.6455 44.1641C74.6455 44.164 74.6455 44.1641 74.6455 44.1641V44.1641ZM61.5318 32.2026L61.5331 32.2029L61.2313 32.0871C61.762 30.6072 61.644 29.2635 60.8965 27.9922C60.2497 26.8922 59.3294 26.147 58.1055 25.7437C58.1053 25.7436 58.1057 25.7438 58.1055 25.7437L58.0993 25.7418C56.8414 25.3144 55.3113 25.2218 53.4861 25.5036C53.486 25.5037 53.4861 25.5036 53.4861 25.5036L53.2059 25.5477V38.093C54.7733 37.643 56.2104 37.0053 57.5201 36.1819C59.5216 34.9235 60.7179 33.5497 61.2293 32.0916L61.2313 32.0871L61.5318 32.2026ZM45.9674 7.0287C44.3632 7.51633 42.9893 8.12501 41.8382 8.84866C40.024 9.98919 38.9325 11.2987 38.4597 12.7525C37.998 14.214 38.1373 15.5285 38.8573 16.7531C39.4574 17.7737 40.2648 18.3631 41.3018 18.5735C42.4378 18.8039 43.7697 18.8094 45.3077 18.5699M45.309 18.5697L45.9674 18.4643V7.0287" fill="black"/><path fill-rule="evenodd" clip-rule="evenodd" d="M67.5465 42.5482L70.5382 37.0058L70.5821 37.0052C70.7446 36.7074 70.98 36.4589 71.2644 36.2847C71.5488 36.1105 71.8726 36.0168 72.2028 36.0128C72.5336 36.0089 72.8593 36.0949 73.1476 36.2622C73.4358 36.4295 73.6764 36.6723 73.8454 36.9662L76.9603 42.4354C77.1293 42.7297 77.2209 43.0647 77.2247 43.407C77.2305 43.924 77.0377 44.4221 76.6882 44.7919C76.3386 45.1617 75.8614 45.3728 75.3616 45.3788L69.2329 45.4522C68.9001 45.46 68.5712 45.3767 68.2797 45.2107C67.9889 45.0446 67.7451 44.8018 67.5735 44.5068C67.402 44.2119 67.3098 43.8753 67.3046 43.5312C67.3001 43.1872 67.3833 42.8481 67.5465 42.5482ZM75.6163 42.7893L72.7761 37.861L72.7961 37.8608C72.7329 37.7506 72.6432 37.6595 72.5355 37.5968C72.4278 37.534 72.306 37.5017 72.1828 37.5032C72.059 37.5047 71.9383 37.5398 71.8319 37.6052C71.7255 37.6705 71.6378 37.7637 71.5772 37.8753L68.8679 42.8701C68.8099 42.9827 68.7795 43.1082 68.7783 43.2359C68.7815 43.3636 68.815 43.4885 68.8763 43.5994C68.9395 43.7096 69.0291 43.8007 69.1368 43.8634C69.2445 43.9261 69.3664 43.9584 69.4896 43.9568L75.0191 43.8906C75.1429 43.8891 75.2635 43.854 75.37 43.7887C75.4764 43.7234 75.5641 43.6303 75.6247 43.5186C75.684 43.4067 75.7143 43.2807 75.7131 43.1529C75.7118 43.025 75.6782 42.8998 75.6163 42.7893Z" fill="#FFBD04"/></svg>