<svg width="24" height="24" viewBox="0 0 24 24" fill="none" xmlns="http://www.w3.org/2000/svg">
<g clip-path="url(#clip0_1036_2425)">
<path d="M21.6599 9.24971L12.6599 1.24971C12.4774 1.08939 12.2428 1.00098 11.9999 1.00098C11.757 1.00098 11.5224 1.08939 11.3399 1.24971L2.33987 9.24971C2.18691 9.38502 2.07904 9.56392 2.03077 9.76236C1.98251 9.9608 1.99615 10.1693 2.06987 10.3597C2.14239 10.5476 2.26998 10.7093 2.43592 10.8235C2.60187 10.9377 2.79843 10.9991 2.99987 10.9997H3.99987V19.9997C3.99987 20.2649 4.10523 20.5193 4.29277 20.7068C4.4803 20.8944 4.73466 20.9997 4.99987 20.9997H18.9999C19.2651 20.9997 19.5194 20.8944 19.707 20.7068C19.8945 20.5193 19.9999 20.2649 19.9999 19.9997V10.9997H20.9999C21.2013 10.9991 21.3979 10.9377 21.5638 10.8235C21.7298 10.7093 21.8574 10.5476 21.9299 10.3597C22.0036 10.1693 22.0172 9.9608 21.969 9.76236C21.9207 9.56392 21.8128 9.38502 21.6599 9.24971ZM12.9999 18.9997H10.9999V15.9997C10.9999 15.7345 11.1052 15.4801 11.2928 15.2926C11.4803 15.1051 11.7347 14.9997 11.9999 14.9997C12.2651 14.9997 12.5194 15.1051 12.707 15.2926C12.8945 15.4801 12.9999 15.7345 12.9999 15.9997V18.9997ZM17.9999 18.9997H14.9999V15.9997C14.9999 15.2041 14.6838 14.441 14.1212 13.8784C13.5586 13.3158 12.7955 12.9997 11.9999 12.9997C11.2042 12.9997 10.4412 13.3158 9.87855 13.8784C9.31594 14.441 8.99987 15.2041 8.99987 15.9997V18.9997H5.99987V10.9997H17.9999V18.9997ZM5.62987 8.99971L11.9999 3.33971L18.3699 8.99971H5.62987Z" fill="#9197B3"/>
</g>
<defs>
<clipPath id="clip0_1036_2425">
<rect width="24" height="24" fill="white"/>
</clipPath>
</defs>
</svg>
