<svg width="100%" height="100%" style="overflow:visible;" preserveAspectRatio="none" viewBox="0 0 109.99 63.5" fill="none" xmlns="http://www.w3.org/2000/svg"><path d="M0 59.3062V58.8058H3.11096V59.159C3.10439 59.8459 3.30396 60.3596 3.7096 60.7001C4.12173 61.04 4.69094 61.2102 5.41714 61.2102C6.13685 61.2102 6.68642 61.053 7.06587 60.7391C7.45188 60.4252 7.64489 60.0031 7.64489 59.4729C7.64489 58.9759 7.44532 58.5801 7.04625 58.2857C6.65367 57.9847 5.84571 57.6576 4.62225 57.3043C3.13708 56.8725 2.02818 56.3099 1.29541 55.6163C0.569184 54.9163 0.202812 53.9938 0.196268 52.8488C0.196268 51.5862 0.660792 50.5819 1.58979 49.8361C2.51882 49.0902 3.76516 48.7173 5.32883 48.7173C6.87943 48.7173 8.12577 49.0804 9.06786 49.8066C10.0165 50.5328 10.4908 51.5305 10.4908 52.7998V53.2218H7.43876V52.947C7.43876 52.3647 7.26213 51.9035 6.90887 51.5632C6.55555 51.2165 6.03872 51.0432 5.35827 51.0432C4.66475 51.0432 4.15448 51.1838 3.82735 51.4651C3.50678 51.7464 3.34646 52.1226 3.34646 52.5937C3.34646 53.0451 3.54603 53.4017 3.9451 53.6634C4.34418 53.9185 5.16857 54.2261 6.41817 54.5859C7.86402 54.9981 8.95336 55.5607 9.68613 56.2739C10.4189 56.9804 10.7853 57.9585 10.7853 59.2081C10.7853 60.5558 10.2946 61.6092 9.31318 62.3683C8.3384 63.1208 7.0495 63.4967 5.44658 63.4967C3.85023 63.4967 2.54175 63.1432 1.5211 62.4368C0.507039 61.7239 0 60.68 0 59.3062ZM14.8089 63.2904L11.4428 48.9626H14.593L16.6735 58.3249C16.7127 58.495 16.7422 58.6455 16.7618 58.7764C16.7814 58.9072 16.8011 59.0707 16.8207 59.2672H16.8894C16.9091 59.0707 16.9287 58.9072 16.9483 58.7764C16.9744 58.6455 17.0072 58.495 17.0464 58.3249L19.2938 48.9626H22.5126L24.8287 58.3151C24.8745 58.4852 24.904 58.639 24.917 58.7764C24.9367 58.9072 24.9596 59.0707 24.9857 59.2672H25.0545C25.0741 59.0642 25.0937 58.8974 25.1133 58.7665C25.1395 58.6357 25.1657 58.4852 25.1918 58.3151L27.1938 48.9626H30.0496L26.7228 63.2904H23.337L20.9719 53.9284C20.9327 53.7648 20.8967 53.6045 20.864 53.4475C20.8378 53.2839 20.8149 53.104 20.7953 52.9078H20.7266C20.707 53.104 20.6808 53.2839 20.648 53.4475C20.6219 53.6045 20.5892 53.7648 20.5499 53.9284L18.1848 63.2904H14.8089ZM31.3941 63.2514V48.9626H34.6425V63.2514H31.3941ZM35.9182 51.4651V48.9626H47.204V51.4651H43.1902V63.2514H39.9419V51.4651H35.9182ZM47.8517 56.529V55.685C47.8517 53.3167 48.4176 51.5632 49.5495 50.4249C50.6814 49.2865 52.16 48.7173 53.9853 48.7173C55.7257 48.7173 57.093 49.1556 58.0879 50.0323C59.0821 50.9025 59.5793 52.1063 59.5793 53.6438V54.1836H56.4291V53.4769C56.4291 52.7049 56.2264 52.1128 55.8209 51.7007C55.4219 51.2819 54.813 51.0726 53.9952 51.0726C53.1446 51.0726 52.4674 51.3866 51.9637 52.0147C51.4665 52.6362 51.2178 53.6503 51.2178 55.057V57.1669C51.2178 58.5081 51.4665 59.509 51.9637 60.1698C52.4674 60.8307 53.1577 61.1612 54.0345 61.1612C54.8195 61.1612 55.4083 60.9419 55.8008 60.5038C56.1939 60.0652 56.4031 59.4374 56.4291 58.6194V58.06H59.5793V58.688C59.5403 60.1338 59.0331 61.2983 58.0583 62.1815C57.09 63.0587 55.7292 63.4967 53.9755 63.4967C52.1174 63.4967 50.6323 62.921 49.52 61.7694C48.4078 60.6114 47.8517 58.8647 47.8517 56.529ZM61.277 63.2514V48.9626H64.4957V54.5859H69.3933V48.9626H72.6019V63.2514H69.3933V57.1669H64.4957V63.2514H61.277ZM75.0362 63.2514V48.9626H78.255V54.6153L82.8475 48.9626H86.2435L78.255 58.4623V63.2514H75.0362ZM83.0833 63.2514L78.5393 56.3622L80.5314 53.9971L86.8518 63.2514H83.0833ZM87.6173 63.2514V48.9626H97.0382V51.4651H90.7574V54.7822H96.1651V57.1178H90.7574V60.7982H97.1659V63.2514H87.6173ZM102.092 63.2514V57.9618L97.3621 48.9626H100.895L103.437 53.9578C103.522 54.1279 103.597 54.2882 103.662 54.4387C103.728 54.5892 103.79 54.7462 103.849 54.9098H103.898C103.957 54.7462 104.019 54.5892 104.085 54.4387C104.15 54.2882 104.225 54.1279 104.31 53.9578L106.862 48.9626H109.992L105.331 57.8735V63.2514H102.092Z" fill="black"/><path fill-rule="evenodd" clip-rule="evenodd" d="M43.1467 39.3963L43.1477 39.3897C43.1515 39.3901 43.1554 39.3906 43.1593 39.391L43.1467 39.3963ZM60.761 33.143L61.8439 36.0713C62.2837 37.3137 62.7708 38.2679 63.3141 38.9117L63.3176 38.9157C63.9259 39.611 64.8865 39.9246 66.122 39.9246C66.9218 39.9246 67.7257 39.7546 68.5332 39.4198L68.5391 39.4173C69.3572 39.0582 69.9998 38.5527 70.4514 37.8955L70.5998 37.6796L70.4035 37.5064C70.0938 37.2333 69.8023 36.9421 69.5286 36.6328C69.2792 36.3112 69.025 35.9038 68.7679 35.4071C68.5279 34.9079 68.2583 34.2667 67.9592 33.4811L64.8676 25.2836C64.2942 23.716 63.6309 22.3874 62.876 21.3028C62.1093 20.1824 61.1145 19.3344 59.895 18.7632C59.4262 18.5364 58.9036 18.3547 58.3284 18.2165C58.3344 18.212 58.3397 18.2075 58.3456 18.2029C58.4065 18.1536 58.4892 18.0774 58.559 17.9739C59.1862 17.3207 59.7401 16.567 60.2207 15.7145C60.2213 15.7139 60.2213 15.7134 60.2218 15.7128L68.8163 1.16188L68.9186 0.988788L68.7956 0.830104L68.3984 0.319364L68.3198 0.218894L68.1933 0.206633C67.6004 0.149247 66.998 0.111027 66.3868 0.0919159C65.7974 0.0729115 65.2459 0.0633866 64.7316 0.0633866C63.6829 0.0633866 62.8512 0.274554 62.2997 0.757034C61.7895 1.18595 61.3048 1.8247 60.8414 2.6551L53.5531 14.963L53.5503 14.9679C53.4948 15.0659 53.4401 15.1584 53.3863 15.2457C51.8882 15.0915 50.3486 15.1244 48.7686 15.3422V0.529201V0.288865L48.5334 0.239847C48.0653 0.142318 47.5529 0.0842004 46.9973 0.0641935C46.7266 0.0169993 46.4331 0 46.1253 0H44.9127H44.6759H44.6249H44.6133H44.6104H44.6098H44.5995H44.5895L44.5794 0.00068322L44.5694 0.00136363L44.5682 0.00144831L44.5675 0.00149285L44.5647 0.00169191L44.564 0.00173934L44.5536 0.00249567L44.5523 0.00259237L44.5126 0.00564799L44.5117 0.00571302C44.4759 0.00856428 44.4239 0.012919 44.3571 0.0190761C44.253 0.0286732 44.1129 0.042656 43.9419 0.0621624L43.9185 0.0637141C43.3397 0.0832351 42.8217 0.141426 42.3666 0.24038L42.1338 0.290985V0.335265C42.0403 0.352708 41.9449 0.371007 41.848 0.390197C40.29 0.698524 38.2748 1.24355 36.5319 2.19423C34.4712 3.31826 32.4861 4.602 30.5996 6.88368C29.9166 7.70979 29.3542 8.83253 28.954 9.9798C28.5528 11.1297 28.2989 12.3488 28.2609 13.3881L28.2607 13.3935V13.3951C28.1931 15.4256 28.7145 17.3491 29.8117 19.1537C31.0978 21.2692 32.7968 22.6792 34.9123 23.3253L34.916 23.3264C36.9855 23.9434 39.3076 24.0586 41.8694 23.6941L41.8714 23.6938L41.8741 23.6934L41.8749 23.6933L42.1348 23.6538L42.184 39.0148V39.2761V39.6059C42.1609 39.6388 42.9488 39.8714 43.07 39.9033L43.209 39.9361L43.348 39.969C44.2201 40.1753 45.4006 40.1695 46.3649 40.1231C46.8568 40.0994 47.3109 40.0641 47.6652 40.035L47.8292 40.0214C48.1115 39.998 48.2741 39.9849 48.3345 39.9849C48.4597 39.9849 48.6449 39.9501 48.8072 39.9167C48.9954 39.8781 49.2365 39.8226 49.5147 39.7536C50.0717 39.6153 50.791 39.4192 51.5575 39.1859C53.0698 38.7258 54.8396 38.0991 55.8847 37.4637C58.0855 36.1256 59.5982 34.684 60.761 33.143ZM68.5054 35.5431C68.5054 35.543 68.5054 35.5431 68.5054 35.5431V35.5431ZM68.4203 39.1467C68.4203 39.1467 68.4203 39.1468 68.4203 39.1467V39.1467ZM56.4002 28.5442L56.4014 28.5445L56.1247 28.4418C56.6112 27.13 56.503 25.939 55.8179 24.8121C55.225 23.8371 54.3815 23.1765 53.2596 22.819C53.2594 22.819 53.2598 22.8191 53.2596 22.819L53.254 22.8173C52.101 22.4385 50.6985 22.3564 49.0254 22.6062C49.0254 22.6063 49.0255 22.6062 49.0254 22.6062L48.7686 22.6453V33.7654C50.2053 33.3665 51.5226 32.8012 52.7231 32.0714C54.5576 30.956 55.6542 29.7382 56.1229 28.4457L56.1247 28.4418L56.4002 28.5442ZM42.1338 6.23019C40.6634 6.66242 39.4041 7.20195 38.349 7.84339C36.6861 8.85434 35.6856 10.0151 35.2522 11.3038C34.829 12.5992 34.9568 13.7644 35.6166 14.8499C36.1667 15.7545 36.9068 16.2769 37.8573 16.4634C38.8986 16.6676 40.1194 16.6725 41.5291 16.4602M41.5303 16.46L42.1338 16.3666V6.23019" fill="black"/><path fill-rule="evenodd" clip-rule="evenodd" d="M61.9132 37.7144L64.6555 32.8016L64.6957 32.8012C64.8447 32.5372 65.0604 32.3169 65.3211 32.1625C65.5818 32.0081 65.8786 31.925 66.1812 31.9215C66.4845 31.918 66.783 31.9942 67.0472 32.1425C67.3115 32.2908 67.532 32.506 67.6868 32.7665L70.542 37.6144C70.6969 37.8753 70.7808 38.1723 70.7844 38.4756C70.7897 38.9339 70.6129 39.3755 70.2926 39.7032C69.9722 40.031 69.5347 40.2181 69.0766 40.2234L63.4591 40.2885C63.154 40.2954 62.8526 40.2216 62.5854 40.0744C62.3188 39.9272 62.0953 39.712 61.9381 39.4505C61.7808 39.1891 61.6963 38.8907 61.6916 38.5858C61.6874 38.2809 61.7637 37.9802 61.9132 37.7144ZM69.3101 37.9281L66.7067 33.5597L66.7251 33.5595C66.6671 33.4618 66.585 33.3811 66.4862 33.3255C66.3875 33.2698 66.2758 33.2412 66.1629 33.2426C66.0494 33.2439 65.9389 33.275 65.8413 33.333C65.7438 33.3909 65.6634 33.4735 65.6078 33.5724L63.1245 37.9998C63.0713 38.0996 63.0435 38.2108 63.0423 38.324C63.0453 38.4372 63.076 38.5479 63.1322 38.6462C63.1901 38.7439 63.2723 38.8246 63.371 38.8802C63.4697 38.9358 63.5814 38.9644 63.6943 38.963L68.7627 38.9043C68.8762 38.903 68.9867 38.8719 69.0843 38.814C69.1818 38.7561 69.2622 38.6735 69.3178 38.5746C69.3722 38.4754 69.3999 38.3637 69.3988 38.2504C69.3976 38.1371 69.3668 38.0261 69.3101 37.9281Z" fill="#FFBD04"/></svg>